# xmcd
#
# Track frame offsets: 
#        150
#        11224
#        23638
#        34276
#        45911
#        56232
#        67308
#        78288
#        88446
#        98641
#        111956
#        124963
#        137379
#        148348
#        158809
#        169413
#        181482
#        192816
#        203259
#        215825
#        227876
#        238778
#        249532
#        263334
#        273002
#        289317
#        300641
#
# Disc length: 4200 seconds
#
# Revision: 0
# Processed by: cddbd v1.5.2PL0 Copyright (c) Steve Scherf et al.
# Submitted via: ExactAudioCopy v0.99pb3
#
DISCID=8d10661b
DTITLE=Johnny Paycheck - Jukebox Charlie and Country Soul
DYEAR=1967
DGENRE=Acid
TTITLE0=Jukebox Charlie
TTITLE1=Touch My Heart
TTITLE2=Just Between You and Me
TTITLE3=Down at Kelly's
TTITLE4=You Can Hear a Teardrop
TTITLE5=Meanest Jukebox in Town
TTITLE6=My Baby Don't Love Me Anymore
TTITLE7=Apartment #9
TTITLE8=Motel Time Again
TTITLE9=I Never Had the One I Wanted
TTITLE10=Big Brother
TTITLE11=Or is it Love?
TTITLE12=Then Love Dies
TTITLE13=Malinche
TTITLE14=The Late Great Me
TTITLE15=There Goes My Everything
TTITLE16=Release Me
TTITLE17=Together Again
TTITLE18=Touch My Heart
TTITLE19=All the Time
TTITLE20=Misty Blue
TTITLE21=Apartment #9
TTITLE22=Almost Persuaded
TTITLE23=It's Such a Pretty World Today
TTITLE24=Danny Boy
TTITLE25=Make the World Go Away
TTITLE26=The Green Green Grass of Home
EXTD=
EXTT0=
EXTT1=
EXTT2=
EXTT3=
EXTT4=
EXTT5=
EXTT6=
EXTT7=
EXTT8=
EXTT9=
EXTT10=
EXTT11=
EXTT12=
EXTT13=
EXTT14=
EXTT15=
EXTT16=
EXTT17=
EXTT18=
EXTT19=
EXTT20=
EXTT21=
EXTT22=
EXTT23=
EXTT24=
EXTT25=
EXTT26=
PLAYORDER=
